<?xml version="1.0" standalone="no"?>
<!DOCTYPE svg PUBLIC "-//W3C//DTD SVG 20010904//EN"
 "http://www.w3.org/TR/2001/REC-SVG-20010904/DTD/svg10.dtd">
<svg version="1.0" xmlns="http://www.w3.org/2000/svg"
 width="4027.000000pt" height="3234.000000pt" viewBox="0 0 4027.000000 3234.000000"
 preserveAspectRatio="xMidYMid meet">
<metadata>
Created by potrace 1.16, written by Peter Selinger 2001-2019
</metadata>
<g transform="translate(0.000000,3234.000000) scale(0.100000,-0.100000)"
fill="#ffffff" stroke="none">
<path d="M16188 30773 c-239 -301 -385 -652 -363 -878 20 -216 84 -348 194
-405 40 -20 166 -44 198 -38 15 3 17 27 15 293 -1 160 2 331 6 380 l8 90 7
-60 c32 -241 91 -587 113 -658 7 -22 43 -17 124 19 104 47 149 96 186 204 15
43 19 82 18 180 -1 113 -4 134 -33 220 -17 52 -67 162 -109 245 -79 151 -281
485 -294 485 -4 0 -36 -35 -70 -77z M17579 30682 c-274 -347 -371 -511 -405
-681 -34 -170 -8 -298 77 -379 38 -35 132 -91 155 -92 18 0 120 277 190 520
25 85 46 156 48 158 11 10 -39 -380 -69 -543 -36 -194 -38 -177 15 -187 147
-28 284 42 354 181 96 189 101 423 15 685 -52 155 -219 473 -254 482 -5 2 -62
-63 -126 -144z M20511 30348 c-124 -383 -157 -614 -112 -790 50 -195 135 -279
297 -294 39 -4 73 -3 76 2 9 16 -33 471 -57 629 -4 25 -2 24 11 -10 19 -50
114 -377 144 -502 27 -107 30 -109 120 -67 65 30 114 74 143 129 28 54 35 210
13 313 -31 148 -134 311 -300 478 -86 85 -268 234 -286 234 -5 0 -27 -55 -49
-122z M19279 30411 c-106 -70 -260 -234 -357 -379 -118 -179 -243 -441 -293
-617 -30 -102 -37 -267 -14 -334 22 -67 108 -187 203 -283 l76 -78 24 23 c41
38 114 157 154 250 48 111 88 264 122 466 15 85 29 157 32 160 13 12 -5 -475
-20 -565 -26 -150 -76 -295 -138 -396 -31 -49 -31 -51 -12 -66 36 -28 123 -63
176 -72 265 -42 505 249 548 667 16 152 -16 334 -90 520 -16 40 -77 172 -135
292 -92 193 -175 403 -175 447 0 24 -23 16 -101 -35z M22045 30138 c-168 -439
-223 -649 -210 -793 20 -210 77 -319 199 -376 57 -27 163 -56 172 -47 18 19
54 421 55 627 l1 146 14 -67 c32 -162 57 -375 70 -602 l7 -119 56 6 c79 8 122
23 177 60 102 68 145 169 152 362 4 111 1 144 -16 214 -63 248 -275 546 -532
748 -30 24 -58 43 -61 43 -4 0 -41 -91 -84 -202z M14128 29828 c-173 -199
-351 -453 -424 -605 -66 -137 -79 -194 -79 -358 0 -126 2 -145 24 -192 13 -29
43 -71 68 -94 48 -44 135 -89 179 -92 26 -2 28 2 56 98 16 55 60 222 98 370
38 149 69 257 69 240 1 -46 -27 -411 -45 -584 -13 -127 -13 -155 -2 -163 15
-11 136 -3 190 12 171 48 278 271 265 550 -8 181 -64 365 -182 602 -52 103
-152 278 -159 278 -2 0 -28 -28 -58 -62z M24830 29826 c-173 -71 -353 -184
-474 -297 -151 -141 -229 -301 -230 -474 0 -100 9 -126 67 -186 31 -32 124
-87 130 -78 2 2 31 64 65 138 56 122 223 434 228 428 2 -1 -22 -74 -52 -161
-30 -88 -72 -223 -93 -300 l-39 -141 22 -8 c11 -5 56 -8 99 -8 138 -1 223 61
297 215 39 83 58 168 66 302 6 105 -11 497 -24 562 l-7 30 -55 -22z M23895
29781 c-496 -218 -811 -440 -953 -670 -180 -294 -178 -515 8 -682 36 -33 70
-58 77 -57 7 2 134 167 284 368 149 201 277 372 285 380 9 8 -82 -177 -200
-411 -119 -234 -216 -428 -216 -431 0 -10 117 -58 170 -69 195 -42 364 48 514
274 127 191 179 406 193 787 6 177 -10 530 -25 556 -5 8 -48 -6 -137 -45z
M14915 29668 c-19 -53 -27 -127 -32 -283 -6 -205 7 -306 58 -460 42 -126 89
-205 176 -296 168 -176 325 -228 462 -154 27 15 64 42 82 61 l32 33 -93 98
c-114 120 -227 260 -303 374 -31 47 -57 88 -57 91 0 3 44 -40 98 -94 105 -108
253 -235 364 -312 81 -56 79 -57 124 40 71 151 45 283 -88 437 -70 80 -170
143 -488 308 -151 78 -284 148 -295 155 -24 17 -34 18 -40 2z M16597 29368
c-57 -233 63 -2279 324 -5543 42 -531 63 -671 131 -865 94 -267 207 -420 603
-815 385 -385 574 -601 856 -978 241 -321 498 -715 770 -1180 87 -149 105
-188 144 -311 134 -434 233 -884 284 -1296 17 -143 18 -194 11 -650 -8 -522
-11 -554 -59 -653 -55 -114 -212 -197 -373 -197 l-38 0 113 -142 c63 -79 231
-298 375 -488 143 -190 345 -448 448 -575 386 -473 622 -787 770 -1025 78
-126 182 -321 223 -420 21 -49 24 -52 37 -36 23 33 259 505 329 661 181 402
171 389 405 563 91 67 211 170 290 247 146 142 187 173 298 229 149 75 305
115 645 166 230 34 1387 249 3367 625 712 135 1331 250 1376 255 44 4 103 15
130 24 54 17 305 57 514 82 185 21 624 30 787 15 520 -49 976 -191 1968 -614
892 -380 1155 -500 1713 -782 223 -113 411 -205 418 -205 25 0 15 16 -43 72
-101 95 -336 263 -583 415 -395 244 -1027 572 -1765 918 -870 407 -1436 563
-2050 565 l-170 1 130 66 c279 141 547 258 1310 571 655 269 896 376 1225 543
331 168 585 321 771 465 130 101 225 196 214 215 -19 29 -109 0 -520 -168
-475 -194 -768 -301 -1615 -588 -1294 -439 -1913 -716 -2528 -1132 -85 -56
-159 -103 -166 -103 -14 0 -2461 -417 -3408 -581 -390 -67 -710 -120 -714
-117 -3 3 18 59 46 125 227 517 429 1144 556 1718 72 329 88 386 131 467 59
113 139 180 1038 868 631 483 855 670 855 714 0 88 -557 -179 -1225 -587 -243
-149 -691 -445 -790 -522 -103 -80 -171 -153 -234 -249 -64 -99 -109 -216
-172 -451 -233 -873 -508 -1619 -687 -1861 -125 -169 -226 -246 -520 -392
l-194 -97 -126 2 c-118 2 -141 0 -327 -42 -359 -80 -657 -175 -893 -286 -58
-27 -107 -47 -109 -45 -8 7 99 232 442 926 503 1019 724 1520 887 2005 33 99
92 259 130 355 38 96 106 270 150 385 258 679 418 1016 653 1375 270 414 586
780 1029 1193 l119 110 241 -7 c132 -3 356 -11 496 -16 363 -14 977 -14 1446
1 454 14 632 7 739 -31 126 -44 179 -50 540 -60 193 -5 472 -14 620 -20 897
-35 1568 -46 1935 -31 264 10 342 19 356 42 35 57 -410 146 -1251 249 -1149
141 -2796 269 -4260 330 -143 6 -267 12 -275 14 -16 2 266 216 530 402 147
103 568 384 1402 935 879 581 1376 958 1846 1399 153 143 321 324 381 410 62
90 24 76 -139 -50 -833 -642 -1188 -879 -2418 -1617 -345 -207 -728 -439 -852
-516 -444 -276 -905 -591 -1223 -836 -76 -58 -146 -106 -155 -106 -9 0 -18 -7
-20 -17 -2 -9 -49 -54 -105 -99 -373 -305 -782 -710 -1043 -1034 -315 -391
-572 -808 -767 -1245 -36 -80 -146 -348 -245 -596 -182 -453 -248 -610 -339
-804 -135 -285 -353 -627 -617 -965 -137 -175 -600 -744 -603 -741 -2 2 2 52
7 112 18 176 24 835 11 1060 -29 482 -90 950 -227 1729 -282 1609 -322 1971
-344 3133 -17 904 -12 1174 27 1332 35 147 114 283 244 424 115 124 625 556
1129 957 711 565 1324 1011 2300 1674 540 366 674 464 658 480 -25 25 -511
-217 -1014 -505 -997 -572 -2235 -1432 -3124 -2169 -301 -249 -464 -464 -540
-711 -67 -217 -77 -357 -86 -1205 -12 -1150 27 -1764 171 -2690 32 -209 148
-928 161 -1000 l5 -30 -19 30 c-11 17 -70 118 -132 225 -573 988 -1127 1713
-1767 2312 -377 353 -492 512 -558 772 -31 125 -47 241 -110 836 -292 2715
-536 4651 -650 5155 -35 157 -55 197 -68 143z M18190 29266 c-427 -150 -813
-352 -972 -509 -149 -147 -248 -338 -248 -479 0 -109 36 -190 134 -303 l35
-40 91 90 c51 50 180 184 288 300 257 273 285 303 276 285 -21 -40 -280 -435
-387 -589 -66 -96 -120 -181 -121 -189 -1 -21 125 -87 204 -108 122 -31 244 2
365 99 191 153 306 361 369 668 40 195 47 267 53 542 5 215 3 257 -8 256 -8 0
-43 -11 -79 -23z M25873 29160 c-206 -17 -338 -55 -476 -139 -114 -69 -196
-146 -237 -223 -31 -57 -34 -71 -35 -148 0 -87 28 -208 50 -216 6 -3 194 70
418 160 224 91 407 163 407 161 0 -2 -165 -105 -367 -230 -203 -126 -372 -232
-377 -236 -12 -11 30 -73 90 -134 95 -95 223 -131 360 -102 294 63 529 275
787 708 76 127 177 320 177 338 0 35 -577 79 -797 61z M21688 28893 c-45 -50
-149 -193 -215 -296 -143 -226 -257 -493 -284 -667 -16 -102 -6 -294 21 -388
62 -220 160 -303 386 -326 l61 -7 6 243 c7 290 26 611 37 653 l8 30 1 -34 c3
-102 101 -854 113 -867 10 -10 116 20 183 51 132 62 203 165 231 336 42 255
-37 516 -283 932 -60 101 -232 367 -237 367 -1 0 -14 -12 -28 -27z M27294
28512 c-207 -140 -421 -317 -539 -444 -142 -154 -220 -281 -271 -443 -25 -78
-28 -106 -29 -215 0 -117 2 -129 28 -182 33 -67 110 -142 190 -183 31 -16 57
-27 59 -25 2 3 91 186 198 408 106 221 195 401 197 399 1 -2 -51 -194 -117
-427 -67 -233 -119 -429 -116 -436 7 -18 135 -37 213 -32 169 12 294 126 391
358 81 192 89 441 27 805 -32 189 -108 485 -124 485 -4 0 -52 -30 -107 -68z
M13145 28338 c13 -69 77 -293 110 -388 72 -205 171 -411 253 -525 117 -161
308 -300 461 -335 107 -25 229 14 329 105 l54 48 -234 236 c-304 308 -400 409
-363 383 17 -11 179 -126 360 -256 l330 -236 19 22 c31 37 74 138 87 206 24
115 -13 222 -121 350 -162 193 -398 302 -804 372 -126 21 -381 50 -447 50 -41
0 -41 0 -34 -32z M19465 28088 c-10 -28 -45 -300 -56 -436 -15 -181 -7 -515
15 -637 33 -177 81 -300 174 -438 126 -186 257 -265 422 -254 68 4 194 38 212
56 4 4 -78 220 -182 481 -104 261 -184 468 -177 459 7 -9 127 -203 267 -432
140 -229 260 -416 266 -417 22 0 148 105 186 155 62 82 82 145 82 255 0 118
-19 189 -89 335 -100 208 -260 371 -565 575 -217 145 -546 322 -555 298z
M15790 28039 c-86 -15 -275 -82 -404 -143 -118 -55 -376 -204 -376 -215 0 -10
132 -118 241 -199 187 -138 370 -238 517 -281 139 -42 329 -37 438 10 91 39
171 155 177 257 l2 35 -364 63 c-200 35 -366 66 -369 69 -3 3 165 5 373 5
l378 0 -6 70 c-14 162 -95 257 -267 311 -76 23 -256 33 -340 18z M11090 27944
c-112 -9 -270 -27 -270 -31 0 -12 122 -269 194 -408 196 -380 321 -538 516
-654 195 -116 363 -106 515 32 l50 44 -155 154 c-85 85 -218 210 -295 278
-182 161 -192 171 -140 141 137 -79 389 -242 528 -341 l162 -117 18 22 c31 38
77 140 89 199 21 102 -19 223 -109 329 -53 61 -165 156 -228 194 -110 64 -299
121 -475 143 -95 12 -331 21 -400 15z M29077 27804 c-231 -36 -451 -132 -569
-248 -51 -50 -117 -149 -145 -216 -28 -68 -31 -166 -7 -217 18 -36 101 -126
114 -121 4 2 48 54 98 116 94 119 292 336 298 329 2 -2 -37 -66 -88 -143 -51
-76 -119 -189 -150 -250 l-57 -111 32 -15 c199 -95 392 20 498 297 25 64 158
558 159 588 0 11 -83 7 -183 -9z M24767 27417 c-160 -440 -191 -560 -190 -722
1 -222 72 -368 209 -431 52 -25 160 -51 170 -42 21 21 60 576 50 708 -7 101 6
64 32 -85 26 -149 49 -351 58 -514 l7 -124 61 6 c100 10 155 34 217 96 63 64
92 127 110 244 42 269 -75 565 -339 856 -73 80 -268 251 -287 251 -5 0 -50
-109 -98 -243z M12641 27093 c-217 -218 -347 -397 -444 -609 -54 -121 -77
-214 -84 -339 -19 -356 95 -532 369 -570 56 -7 49 -25 73 190 26 230 106 699
122 715 3 3 2 -74 -2 -170 -7 -162 9 -681 21 -723 5 -14 13 -16 42 -12 147 24
222 56 291 125 80 80 118 173 141 349 29 214 -41 470 -277 1024 -42 97 -80
177 -85 177 -5 0 -80 -71 -167 -157z M23639 27140 c-87 -15 -163 -69 -221
-159 -15 -25 -28 -48 -28 -52 0 -4 39 -29 88 -55 177 -96 593 -354 570 -354
-3 0 -37 14 -75 31 -160 73 -601 239 -633 239 -8 0 -24 -63 -35 -137 -9 -55
11 -147 42 -201 37 -63 132 -143 225 -190 93 -46 206 -76 350 -91 95 -11 698
-16 698 -6 0 19 -88 233 -133 323 -99 195 -201 338 -323 450 -149 138 -378
226 -525 202z M27685 26803 c-246 -371 -347 -553 -379 -683 -28 -112 -33 -303
-10 -376 31 -101 123 -198 246 -260 l48 -24 23 47 c74 147 183 452 247 688
l40 150 -5 -95 c-15 -244 -78 -619 -141 -831 -5 -19 9 -24 110 -38 190 -27
338 60 431 254 107 219 126 450 60 709 -30 121 -87 271 -142 379 -59 113 -187
307 -250 375 l-48 53 -230 -348z M30005 27049 c-366 -36 -647 -190 -765 -419
-77 -149 -67 -267 31 -354 21 -20 43 -36 47 -36 5 0 44 46 88 102 43 56 134
159 201 228 l123 125 -103 -155 c-93 -141 -214 -356 -206 -365 2 -2 32 -13 66
-24 130 -44 214 -22 319 83 85 85 128 165 178 328 28 92 126 476 126 493 0 3
-6 4 -12 4 -7 -1 -49 -5 -93 -10z M18376 26949 c-399 -98 -739 -271 -904 -460
-69 -79 -152 -232 -172 -318 -18 -76 -9 -175 23 -236 14 -27 52 -76 84 -108
l59 -58 119 143 c110 132 299 346 403 457 50 53 51 53 -95 -180 -120 -190
-293 -485 -293 -498 0 -11 104 -57 163 -72 249 -62 506 172 615 561 47 167 83
399 116 743 6 56 5 56 -118 26z M10015 26668 c-33 -5 -64 -13 -68 -17 -5 -5
15 -54 43 -110 28 -57 83 -180 121 -274 86 -211 116 -263 189 -338 72 -73 125
-98 206 -99 70 0 164 25 164 44 0 46 -161 322 -247 424 -25 29 -43 55 -41 57
2 3 43 -31 90 -75 94 -87 190 -199 257 -297 23 -35 46 -63 52 -63 18 0 101 84
121 124 33 64 23 162 -26 261 -48 97 -152 206 -246 258 -174 96 -413 137 -615
105z M13948 26488 c-3 -13 -21 -93 -41 -178 -81 -347 -117 -646 -98 -819 26
-238 135 -451 268 -523 64 -35 159 -51 246 -43 l69 7 -7 52 c-13 100 -85 483
-120 641 -19 87 -35 164 -35 170 1 27 207 -498 287 -732 17 -52 33 -83 42 -83
8 0 48 16 88 36 95 47 170 127 198 211 28 81 26 237 -4 353 -28 106 -94 244
-163 335 -78 106 -279 300 -408 397 -124 93 -287 198 -306 198 -6 0 -14 -10
-16 -22z M15860 26475 c-110 -25 -249 -77 -394 -148 -131 -64 -298 -157 -341
-191 -23 -18 -37 -4 126 -135 201 -161 420 -292 580 -346 200 -68 451 -46 550
47 44 41 79 105 96 174 9 35 14 66 12 68 -2 1 -168 31 -369 65 -201 35 -367
65 -369 67 -2 2 166 4 374 4 l378 0 -6 68 c-14 164 -95 262 -259 313 -85 27
-288 34 -378 14z M25725 26408 c-20 -114 -87 -659 -97 -786 -14 -174 -4 -287
35 -412 74 -236 181 -336 383 -360 142 -16 128 -30 120 123 -9 172 -39 405
-76 588 -16 80 -32 153 -36 162 -3 9 -4 17 -1 17 7 0 101 -239 144 -365 39
-115 94 -314 118 -429 l17 -78 32 5 c55 9 145 48 189 81 62 47 104 109 128
188 30 97 23 271 -15 401 -82 279 -322 553 -668 764 -77 47 -247 133 -263 133
-2 0 -7 -15 -10 -32z M18876 26333 c-208 -258 -381 -608 -433 -877 -20 -108
-13 -289 18 -406 54 -212 151 -325 303 -357 67 -14 165 -17 181 -5 7 4 8 35 4
87 -13 136 -23 815 -13 815 6 0 18 -55 28 -122 38 -266 141 -737 162 -745 22
-8 171 59 227 103 123 96 172 258 147 483 -14 124 -44 218 -120 376 -90 186
-416 715 -441 715 -4 0 -33 -30 -63 -67z M22055 26362 c-70 -25 -137 -73 -195
-143 -28 -33 -50 -62 -50 -63 0 -2 173 -131 385 -287 212 -155 383 -284 381
-286 -2 -2 -193 91 -425 206 -231 116 -423 211 -426 211 -8 0 -32 -53 -54
-120 -58 -175 -5 -346 147 -477 227 -196 422 -256 882 -273 252 -9 356 -23
453 -61 27 -11 52 -17 55 -14 13 12 14 141 2 213 -33 208 -181 492 -388 745
-144 176 -330 301 -527 353 -69 19 -180 17 -240 -4z M11379 26153 c-207 -265
-367 -571 -426 -814 -25 -103 -24 -325 1 -429 59 -238 164 -333 387 -355 l65
-6 13 398 c8 219 17 427 20 463 l6 65 8 -60 c4 -33 19 -152 33 -265 14 -113
40 -288 57 -390 36 -210 22 -194 137 -160 199 58 295 197 307 445 11 226 -57
429 -262 785 -70 122 -260 420 -267 420 -2 0 -38 -44 -79 -97z M30268 26075
c-434 -111 -549 -158 -667 -275 -37 -37 -79 -90 -92 -116 -40 -83 -38 -193 6
-297 l15 -37 98 49 c120 61 290 163 401 243 66 47 79 53 63 31 -40 -56 -293
-281 -427 -379 -36 -26 -65 -52 -65 -56 0 -18 96 -111 135 -131 55 -30 169
-29 243 2 78 31 200 112 253 168 122 126 220 332 269 566 22 104 38 297 24
296 -5 0 -120 -29 -256 -64z M24311 25333 c-23 -181 -33 -392 -27 -553 12
-355 67 -541 217 -740 135 -178 288 -233 477 -171 41 13 76 29 78 36 3 6 -76
198 -175 425 -99 227 -174 407 -167 399 8 -8 121 -177 251 -376 131 -200 242
-363 247 -363 36 0 164 134 199 208 28 57 31 75 31 151 0 98 -23 184 -79 296
-94 187 -257 346 -537 522 -107 67 -467 253 -490 253 -9 0 -17 -26 -25 -87z
M9184 25167 c3 -12 10 -49 17 -82 45 -240 181 -513 333 -668 174 -178 436
-263 582 -189 59 30 144 131 144 171 0 5 -37 29 -83 53 -150 80 -380 232 -468
309 -29 26 -19 22 76 -24 182 -90 477 -207 520 -207 19 0 38 110 33 187 -3 41
-13 85 -26 110 -45 87 -169 183 -302 234 -80 30 -230 56 -510 89 -146 16 -277
32 -293 35 -24 4 -27 2 -23 -18z M30914 25162 c-54 -19 -154 -79 -154 -92 0
-21 100 -131 279 -308 l196 -193 -160 107 c-153 103 -296 207 -379 277 l-38
32 -29 -35 c-53 -63 -74 -118 -73 -191 0 -96 43 -178 144 -279 109 -109 203
-154 455 -219 208 -53 291 -84 375 -136 l55 -34 13 37 c56 159 23 402 -84 614
-85 171 -163 267 -281 349 -127 87 -214 107 -319 71z M13265 25130 c-522 -145
-888 -338 -1053 -555 -126 -166 -173 -274 -175 -402 -1 -75 2 -87 36 -155 36
-74 119 -178 140 -178 7 0 167 154 356 343 392 390 391 406 4 -143 -254 -359
-242 -316 -108 -381 142 -68 260 -69 391 -4 80 39 205 149 279 245 161 210
270 622 310 1178 7 92 7 92 -16 91 -13 0 -87 -18 -164 -39z M20792 25160
c-116 -17 -220 -98 -282 -220 -17 -34 -30 -66 -28 -70 2 -5 73 -43 158 -85
237 -117 416 -227 609 -372 88 -66 96 -80 21 -37 -167 96 -508 229 -777 302
-84 24 -78 30 -95 -99 -30 -224 54 -383 270 -513 164 -98 295 -128 832 -191
168 -20 344 -42 393 -49 l87 -13 0 23 c0 53 -45 249 -86 372 -85 260 -221 489
-389 658 -111 111 -201 172 -337 228 -139 57 -272 81 -376 66z M28554 24945
c-27 -13 -67 -43 -89 -65 l-39 -40 89 -81 c103 -93 322 -315 368 -372 24 -32
6 -21 -94 55 -128 97 -296 213 -383 263 -47 27 -49 28 -62 10 -32 -43 -57
-131 -57 -197 0 -91 35 -160 127 -253 86 -87 168 -134 334 -192 110 -38 434
-129 531 -148 l34 -7 -6 98 c-20 315 -145 636 -308 789 -162 153 -320 202
-445 140z M8083 24732 c13 -219 60 -480 119 -657 81 -242 225 -427 395 -507
85 -40 151 -46 230 -19 67 22 153 70 153 85 0 4 -98 151 -218 325 -120 174
-222 323 -227 331 -4 8 119 -114 275 -272 155 -159 285 -288 289 -288 14 0
101 118 121 163 43 96 32 222 -28 327 -48 85 -126 182 -182 230 -169 140 -446
263 -800 355 l-133 34 6 -107z M29847 24666 c-38 -14 -54 -24 -95 -60 l-23
-20 183 -185 c101 -102 176 -180 168 -174 -8 6 -105 74 -214 153 -153 109
-201 139 -208 128 -29 -41 -58 -118 -58 -153 0 -99 111 -234 246 -300 124 -60
373 -114 527 -115 51 0 58 2 53 18 -76 274 -124 396 -203 515 -98 147 -267
234 -376 193z M18035 24612 c-57 -20 -135 -63 -154 -86 -11 -13 -1 -31 57
-113 109 -154 220 -325 327 -498 119 -195 118 -193 58 -125 -249 282 -561 610
-581 610 -17 0 -99 -107 -126 -165 -36 -77 -47 -141 -35 -221 17 -122 108
-284 227 -400 127 -125 445 -304 822 -464 l165 -69 9 37 c5 20 9 145 10 277 0
183 -4 267 -17 355 -52 336 -140 535 -312 705 -83 83 -133 118 -212 151 -71
29 -165 31 -238 6z M15605 24564 c-109 -11 -265 -37 -265 -45 0 -17 147 -304
226 -440 169 -295 287 -441 437 -539 185 -122 321 -144 462 -75 50 24 155 109
155 125 0 18 -361 340 -610 544 -89 73 340 -177 579 -336 103 -70 136 -87 142
-77 5 8 26 47 46 87 48 96 56 197 23 284 -63 169 -283 349 -502 412 -154 45
-251 57 -458 61 -107 2 -213 1 -235 -1z M14740 24454 c-430 -230 -698 -461
-800 -690 -74 -164 -88 -303 -42 -407 22 -49 106 -138 160 -170 l31 -17 210
337 c115 186 214 345 220 353 16 23 5 -5 -132 -345 -69 -170 -135 -334 -146
-362 l-21 -53 71 -21 c96 -29 212 -24 284 13 150 78 275 285 317 528 16 97 16
422 -1 565 -19 165 -45 308 -56 312 -5 1 -48 -18 -95 -43z M22720 24145 c0
-28 70 -363 101 -483 90 -352 194 -550 355 -676 99 -77 136 -91 244 -91 85 0
102 4 161 32 37 17 70 36 73 42 11 17 -203 354 -400 631 -42 58 -31 50 105
-85 84 -82 214 -219 289 -303 l137 -153 59 62 c71 75 97 132 104 220 6 85 -16
160 -76 263 -117 196 -302 332 -597 436 -108 38 -299 84 -410 99 -44 6 -95 14
-112 17 -26 4 -33 1 -33 -11z M10540 24132 c0 -19 119 -118 288 -239 439 -316
1280 -863 2667 -1736 621 -391 711 -451 817 -544 230 -203 335 -393 588 -1052
429 -1119 983 -1853 2028 -2685 258 -205 534 -414 676 -512 94 -65 152 -114
215 -182 47 -51 149 -157 227 -235 152 -154 212 -236 322 -444 34 -65 97 -164
140 -220 42 -56 118 -155 168 -221 106 -138 163 -232 215 -352 183 -423 254
-985 172 -1360 -21 -96 -21 -104 10 -235 50 -214 117 -711 139 -1037 l12 -180
107 -97 c109 -99 372 -322 765 -648 381 -316 588 -520 767 -756 l82 -107 3 37
c2 21 21 121 42 223 75 356 73 319 77 1275 l4 860 -45 131 c-206 600 -510
1090 -1291 2084 -136 173 -346 446 -465 605 -238 317 -311 396 -462 496 -128
84 -185 135 -269 239 -80 99 -115 129 -324 275 -713 501 -1316 981 -1689 1345
-545 531 -905 1071 -1211 1815 -277 676 -391 880 -619 1113 -166 171 -260 234
-853 576 -2008 1156 -3303 1850 -3303 1768z M27643 24071 c-6 -10 -40 -34 -75
-54 -191 -107 -473 -354 -547 -479 -45 -79 -79 -166 -97 -251 -26 -121 -5
-203 73 -280 32 -33 100 -77 117 -77 2 0 78 135 167 300 90 164 164 298 166
296 2 -1 -46 -147 -106 -324 -61 -177 -107 -323 -103 -326 4 -2 36 -10 72 -16
171 -31 295 43 389 233 61 124 75 210 68 432 -8 233 -52 505 -89 542 -22 22
-24 22 -35 4z M9789 23802 c-91 -30 -178 -89 -274 -187 -123 -124 -191 -245
-250 -450 -50 -175 -67 -303 -69 -522 0 -111 2 -204 5 -207 11 -11 566 208
724 287 268 132 449 332 471 519 10 82 -24 191 -88 280 l-19 27 -72 -51 c-168
-119 -369 -283 -493 -400 -39 -38 -74 -68 -78 -68 -22 0 237 313 420 507 l124
131 -51 46 c-106 96 -231 127 -350 88z M30407 23774 c-238 -43 -418 -145 -537
-302 -83 -111 -104 -221 -60 -318 23 -53 66 -114 80 -114 5 0 52 34 105 75
145 113 489 335 501 323 1 -2 -34 -33 -79 -68 -89 -72 -356 -333 -402 -394
l-29 -38 29 -25 c105 -86 240 -114 348 -73 80 30 197 111 252 173 25 29 71 90
102 136 57 86 333 575 333 591 0 9 -66 24 -175 40 -101 14 -376 11 -468 -6z
M32130 23609 c-254 -31 -409 -75 -481 -137 -48 -41 -96 -135 -128 -250 l-19
-71 45 -7 c26 -4 88 -4 138 -1 104 6 251 50 377 112 88 44 73 27 -42 -50 -170
-113 -338 -175 -479 -175 l-64 0 6 -61 c7 -84 41 -146 101 -186 68 -46 114
-56 236 -50 86 3 121 10 190 36 210 78 325 203 493 536 42 83 92 178 112 212
l35 61 -72 17 c-86 21 -336 28 -448 14z M28835 23461 c-218 -22 -360 -79 -484
-195 -104 -98 -123 -193 -67 -328 l16 -36 232 100 c351 150 368 157 368 154 0
-2 -35 -27 -79 -55 -43 -27 -165 -107 -270 -176 l-192 -125 36 -45 c49 -59
115 -101 181 -116 76 -17 157 -1 270 55 76 38 104 59 175 133 116 120 272 363
355 549 l24 54 -23 5 c-101 23 -418 38 -542 26z M7955 23265 c-253 -56 -572
-281 -798 -564 l-28 -35 223 -89 c414 -164 573 -209 743 -209 273 0 423 100
466 309 7 34 10 65 6 69 -16 16 -242 34 -497 40 -151 4 -265 10 -255 14 63 23
443 73 653 86 128 8 123 2 101 106 -33 153 -114 233 -279 274 -69 17 -256 17
-335 -1z M15487 22888 c-189 -282 -332 -571 -403 -813 -27 -92 -29 -113 -29
-260 0 -181 15 -267 66 -366 65 -130 163 -190 350 -214 l47 -6 5 53 c4 29 16
241 29 470 12 230 24 416 25 414 2 -2 26 -196 53 -432 65 -557 52 -497 103
-489 183 29 307 120 361 265 38 103 52 246 38 371 -29 248 -189 570 -462 934
-54 72 -104 136 -113 143 -12 10 -23 -1 -70 -70z M21871 22848 c-94 -287 -130
-467 -138 -683 -5 -142 -3 -170 16 -245 27 -109 98 -253 152 -308 24 -24 66
-56 93 -70 46 -24 62 -26 158 -27 58 0 110 3 114 8 4 4 -27 178 -70 388 -43
209 -76 382 -74 384 2 2 69 -162 148 -366 79 -203 146 -369 147 -369 23 0 149
76 183 110 101 100 120 223 69 435 -47 195 -202 413 -448 629 -106 94 -288
236 -301 236 -5 0 -26 -55 -49 -122z M10995 22776 c-120 -38 -181 -104 -231
-251 -26 -74 -28 -92 -28 -235 0 -141 2 -163 27 -245 34 -109 114 -278 190
-400 58 -95 222 -305 237 -305 13 0 192 304 286 485 46 88 100 210 120 270 36
105 38 116 38 240 0 252 -69 356 -281 420 l-42 13 -25 -107 c-36 -153 -72
-346 -95 -505 -11 -76 -23 -142 -27 -145 -3 -3 -4 171 -2 387 l4 392 -65 -1
c-36 0 -84 -6 -106 -13z M20480 22680 c-265 -45 -378 -142 -388 -335 l-4 -80
243 8 c134 4 305 6 379 5 l135 -3 -75 -13 c-143 -26 -585 -113 -623 -123 -37
-10 -38 -12 -31 -42 12 -59 61 -152 99 -191 52 -53 124 -84 220 -94 214 -24
405 41 696 237 144 96 349 255 349 270 0 15 -164 116 -300 185 -278 142 -528
204 -700 176z M31259 22666 c-76 -27 -140 -82 -179 -155 -11 -21 -10 -26 6
-39 38 -29 264 -134 405 -187 79 -30 136 -55 127 -55 -62 -1 -449 91 -547 130
-29 11 -54 20 -56 20 -2 0 -12 -26 -21 -57 -31 -108 0 -213 83 -283 50 -41
163 -96 238 -115 125 -32 322 -15 524 45 116 35 341 121 341 131 0 15 -209
237 -293 310 -168 147 -296 221 -434 253 -85 19 -145 20 -194 2z M12455 22167
c-61 -24 -93 -47 -144 -102 -153 -168 -208 -361 -198 -695 6 -165 37 -414 55
-432 4 -4 68 27 142 70 369 213 546 360 632 528 78 151 95 249 62 347 -16 48
-75 122 -124 157 l-28 20 -101 -139 c-55 -76 -148 -207 -206 -291 -58 -84
-105 -151 -105 -148 0 9 112 252 206 447 52 107 91 198 86 203 -4 4 -34 17
-65 28 -63 22 -164 26 -212 7z M25930 21924 c-165 -227 -249 -371 -292 -500
-18 -55 -22 -92 -23 -184 0 -106 2 -119 27 -167 15 -28 43 -63 61 -77 37 -29
114 -65 137 -66 18 0 66 167 119 410 16 74 32 144 35 155 14 53 -13 -462 -30
-564 l-5 -34 78 5 c128 8 208 66 252 184 74 197 48 411 -81 668 -40 79 -131
230 -166 275 l-19 24 -93 -129z M24675 21997 c-48 -16 -102 -43 -109 -56 -3
-4 17 -46 45 -92 86 -142 251 -501 236 -515 -2 -2 -14 15 -27 39 -65 117 -218
328 -338 466 l-22 26 -44 -50 c-105 -118 -124 -224 -66 -377 51 -137 128 -219
464 -492 l229 -187 18 41 c33 72 76 223 94 323 26 145 17 383 -17 489 -51 156
-168 312 -271 365 -59 30 -137 38 -192 20z M30450 21926 c-25 -7 -57 -19 -72
-27 l-28 -14 74 -155 c90 -190 217 -484 202 -469 -3 2 -44 65 -92 139 -47 74
-131 199 -186 277 l-101 143 -26 -19 c-120 -87 -169 -229 -126 -363 48 -144
124 -254 252 -360 147 -123 517 -359 533 -341 5 4 15 44 24 88 58 299 52 600
-15 781 -29 78 -107 191 -172 250 -85 78 -164 99 -267 70z M27737 21899 c-33
-8 -117 -45 -117 -52 0 -1 63 -127 140 -280 77 -153 140 -283 140 -288 0 -6
-49 58 -110 143 -60 84 -146 200 -192 257 l-82 104 -52 -56 c-55 -59 -94 -142
-94 -200 1 -54 20 -119 58 -197 76 -155 279 -318 631 -509 51 -28 97 -49 101
-46 20 12 44 236 44 405 0 255 -30 382 -125 524 -103 155 -224 224 -342 195z
M17254 21755 c-274 -60 -519 -273 -746 -651 -71 -120 -190 -351 -244 -476 -29
-68 -31 -78 -16 -82 55 -16 291 -30 512 -30 439 0 656 50 882 202 254 171 325
365 222 601 -15 33 -29 51 -36 48 -7 -3 -204 -93 -437 -201 -234 -108 -426
-195 -427 -193 -2 2 173 124 388 273 215 148 393 274 395 280 5 16 -121 148
-174 182 -94 59 -195 74 -319 47z M32765 21743 c-497 -63 -902 -200 -1153
-390 -134 -102 -264 -275 -314 -418 -54 -156 -27 -276 97 -429 l46 -56 48 42
c27 24 124 113 217 198 139 127 370 330 494 434 32 27 27 21 -136 -179 -225
-275 -476 -605 -471 -618 7 -17 104 -74 179 -105 53 -22 78 -26 158 -26 80 0
105 4 158 27 124 52 285 188 370 315 155 227 284 623 386 1180 6 35 3 36 -79
25z M8622 21699 c3 -13 33 -159 67 -324 118 -567 152 -683 240 -817 157 -240
314 -309 552 -242 69 19 69 -2 -3 194 -58 157 -170 395 -253 536 -71 122 -73
125 -44 92 174 -196 335 -427 483 -691 l27 -48 49 27 c166 90 238 255 196 447
-33 146 -139 330 -252 438 -237 224 -591 368 -993 405 -74 6 -74 6 -69 -17z
M13645 21566 c-102 -47 -202 -178 -256 -332 -34 -101 -62 -235 -84 -407 l-6
-48 28 7 c293 66 475 137 590 231 45 37 119 135 141 186 28 66 12 149 -45 225
l-24 32 -157 -142 c-213 -193 -228 -205 -216 -188 6 8 75 97 153 198 91 116
141 188 137 198 -3 8 -29 26 -58 39 -69 32 -136 33 -203 1z M6775 21520 c-99
-9 -264 -37 -283 -49 -9 -5 16 -64 92 -212 57 -112 137 -280 176 -374 204
-480 227 -523 364 -661 72 -71 108 -99 170 -130 79 -39 81 -39 195 -39 93 0
130 5 186 22 106 34 103 30 70 115 -88 225 -264 511 -435 708 -65 75 -85 104
-54 79 256 -206 437 -402 606 -654 44 -66 82 -122 84 -124 8 -9 117 74 161
123 25 28 58 76 72 106 23 49 26 67 25 165 0 94 -4 120 -27 182 -54 142 -148
283 -264 394 -203 195 -513 319 -870 349 -129 11 -137 11 -268 0z M29043
21350 c-135 -54 -272 -249 -319 -455 -25 -108 -25 -388 0 -525 31 -168 103
-425 119 -425 10 0 300 220 402 306 138 115 256 238 312 322 102 154 148 348
108 466 -17 53 -77 127 -145 181 l-38 30 -75 -112 c-112 -170 -172 -269 -259
-423 -43 -77 -78 -137 -78 -133 0 30 158 443 243 635 l45 102 -56 22 c-83 31
-193 35 -259 9z M20889 20883 c-23 -59 -80 -301 -99 -417 -41 -246 -36 -508
12 -665 55 -181 191 -372 306 -428 49 -24 69 -28 142 -27 106 0 196 28 194 59
-1 11 -31 97 -67 190 -68 180 -190 530 -201 580 -7 33 -2 24 154 -260 51 -93
131 -234 178 -312 l84 -143 43 30 c100 69 170 161 190 250 30 132 -29 346
-137 502 -103 147 -318 339 -617 551 -185 131 -169 123 -182 90z M26902 20751
c-31 -11 -70 -35 -93 -57 -41 -40 -79 -123 -79 -174 0 -33 -11 -29 150 -55
130 -21 321 -73 420 -114 42 -18 60 -29 42 -25 -19 3 -68 13 -110 21 -43 8
-171 17 -289 20 l-213 6 0 -36 c0 -64 37 -161 81 -211 111 -126 283 -152 644
-97 105 16 228 34 275 40 47 6 102 14 122 17 l37 6 -25 56 c-130 298 -398 548
-648 607 -88 21 -248 19 -314 -4z M23418 20741 c-276 -60 -387 -163 -405 -376
-3 -40 -3 -79 -1 -87 5 -11 64 -10 369 9 200 12 389 22 419 22 43 0 -36 -22
-350 -96 -223 -53 -407 -98 -409 -99 -9 -8 42 -140 73 -189 78 -122 214 -175
413 -162 152 10 257 45 420 138 75 43 153 99 396 287 45 35 117 84 160 109 42
25 77 49 77 53 0 13 -105 104 -166 145 -202 134 -562 251 -804 261 -79 3 -127
-1 -192 -15z M12055 20408 c-265 -279 -375 -481 -375 -691 0 -103 19 -169 63
-215 33 -34 102 -74 147 -85 25 -6 25 -5 104 284 44 159 81 287 83 286 3 -4
-41 -484 -52 -559 l-5 -38 60 0 c62 0 138 21 177 49 33 23 87 107 107 166 45
134 41 278 -15 474 -40 139 -165 441 -183 441 -2 0 -52 -50 -111 -112z M10382
20397 c-8 -9 -78 -143 -156 -299 -193 -384 -248 -557 -232 -729 19 -189 82
-288 220 -342 120 -48 109 -54 140 86 36 166 62 331 77 479 7 68 15 127 19
131 13 14 22 -243 18 -507 l-3 -248 80 4 c230 12 347 176 349 488 0 103 -4
139 -23 205 -66 227 -207 463 -391 658 -75 79 -87 88 -98 74z M13502 20148
c-48 -453 -50 -604 -11 -757 45 -178 148 -319 258 -354 55 -17 215 -24 225 -9
12 21 -70 439 -128 647 -14 49 -24 90 -22 92 11 11 202 -447 260 -624 15 -46
32 -83 37 -83 28 0 140 63 177 99 69 67 86 117 87 241 0 120 -19 206 -71 315
-97 207 -359 441 -659 586 -66 33 -123 59 -126 59 -3 0 -15 -96 -27 -212z
M33510 20339 c-374 -36 -677 -144 -847 -303 -217 -203 -271 -400 -155 -569 17
-23 39 -50 51 -61 20 -18 21 -18 98 51 147 131 485 404 543 438 8 5 -31 -40
-86 -100 -166 -180 -424 -488 -424 -507 0 -5 28 -26 62 -49 166 -107 325 -89
502 57 120 99 206 230 297 453 46 114 137 385 177 529 l20 72 -76 -1 c-42 -1
-115 -5 -162 -10z M8736 20173 c-163 -426 -221 -777 -165 -1004 42 -172 136
-321 231 -370 68 -35 262 -46 274 -15 2 6 -25 189 -60 406 -35 217 -62 396
-61 398 1 1 34 -89 72 -200 39 -112 98 -285 133 -385 34 -101 68 -183 74 -183
6 0 43 15 81 33 87 42 161 119 190 198 37 103 19 309 -41 450 -58 138 -174
296 -344 469 -101 102 -325 300 -340 300 -4 0 -24 -44 -44 -97z M30456 20180
c-55 -173 -72 -406 -41 -553 31 -149 158 -319 257 -346 56 -16 113 -9 168 19
l39 20 -50 95 c-73 138 -207 453 -166 391 6 -10 44 -69 83 -131 39 -62 100
-150 135 -195 35 -46 67 -89 72 -94 5 -7 26 9 57 42 91 97 99 192 29 340 -44
91 -169 213 -377 367 -89 66 -167 121 -172 123 -5 2 -20 -33 -34 -78z M17544
19944 c-251 -302 -404 -549 -448 -719 -37 -143 -30 -318 15 -407 38 -74 145
-153 235 -172 l30 -7 34 118 c18 65 62 231 97 368 l64 250 -6 -135 c-6 -133
-39 -521 -50 -591 -6 -35 -6 -36 31 -42 59 -10 171 10 227 40 130 71 210 254
210 483 0 129 -15 206 -69 371 -51 153 -198 450 -261 528 l-19 24 -90 -109z
M18704 19911 c-168 -41 -292 -223 -325 -479 -15 -122 0 -303 51 -607 55 -325
58 -338 81 -332 10 3 65 33 123 67 301 180 543 422 641 643 62 141 84 366 46
467 -36 95 -94 149 -208 194 l-60 24 -52 -156 c-77 -230 -256 -671 -237 -582
3 14 21 93 41 175 31 135 84 425 99 548 l6 47 -88 -1 c-48 -1 -101 -4 -118 -8z
M29539 19737 c-217 -244 -362 -462 -430 -647 -52 -142 -55 -350 -8 -459 37
-87 131 -156 252 -185 15 -3 27 -3 27 1 0 20 151 717 156 722 3 3 3 -19 0 -49
-3 -30 -8 -147 -11 -260 -3 -113 -8 -256 -12 -319 l-6 -114 79 5 c201 11 304
128 345 390 28 183 -44 447 -212 778 -77 151 -105 200 -116 200 -5 0 -33 -28
-64 -63z M26090 19721 c-56 -18 -115 -55 -166 -105 -30 -29 -54 -57 -54 -62 0
-6 54 -59 121 -119 66 -60 172 -163 234 -231 111 -120 275 -317 275 -329 0 -4
-35 25 -78 64 -108 98 -274 226 -427 330 -125 84 -216 141 -227 141 -10 0 -68
-137 -84 -200 -42 -163 26 -323 206 -486 89 -80 210 -148 402 -225 188 -75
690 -260 695 -256 11 12 2 373 -12 475 -38 272 -135 530 -261 693 -87 113
-243 235 -366 286 -67 28 -207 41 -258 24z M27829 19403 c-127 -282 -204 -540
-229 -773 -32 -290 81 -584 253 -661 43 -20 69 -24 149 -24 53 0 99 2 101 5 3
3 -17 189 -44 414 -26 226 -47 411 -46 413 2 1 47 -145 100 -325 54 -180 107
-357 118 -394 11 -38 25 -68 31 -68 31 0 162 75 204 117 65 66 94 136 101 245
16 237 -68 438 -295 710 -81 98 -302 323 -371 377 l-41 33 -31 -69z M6655
19428 c15 -72 127 -394 174 -498 83 -187 128 -256 227 -356 191 -191 363 -224
528 -102 l55 41 -31 36 c-41 48 -298 335 -390 436 -40 44 -66 75 -58 69 114
-83 295 -223 418 -321 l152 -123 31 43 c57 77 74 124 73 207 -1 86 -21 139
-82 223 -147 199 -387 309 -785 362 -65 8 -163 15 -218 15 l-101 0 7 -32z
M23074 19075 c-121 -18 -214 -50 -282 -95 -140 -94 -182 -192 -129 -302 l22
-47 88 49 c168 94 322 173 307 158 -8 -9 -88 -73 -177 -142 -90 -70 -163 -131
-163 -136 0 -14 72 -72 106 -86 79 -33 201 0 299 81 51 41 129 153 183 262 46
90 112 246 112 262 0 15 -264 12 -366 -4z M14820 19037 c-34 -17 -53 -59 -41
-89 5 -13 14 -52 21 -88 35 -190 116 -374 209 -472 86 -92 166 -132 251 -126
46 3 70 11 103 34 23 17 42 35 42 41 0 6 -71 97 -157 202 -87 105 -155 191
-152 191 3 0 82 -66 177 -147 226 -194 204 -178 224 -162 30 26 63 111 63 167
0 135 -141 285 -344 363 -79 30 -326 99 -356 99 -8 0 -26 -6 -40 -13z M11725
19019 c-697 -53 -1283 -206 -2475 -644 -1069 -393 -1375 -488 -2010 -625 -254
-55 -292 -66 -270 -80 24 -15 328 -11 483 6 474 51 927 159 1766 420 660 206
854 264 1046 317 1168 320 2037 339 2784 62 267 -98 440 -184 1036 -514 237
-131 470 -260 519 -286 l90 -48 -130 -37 c-185 -53 -317 -97 -679 -230 -638
-235 -755 -266 -1314 -350 -519 -78 -744 -136 -973 -251 -334 -167 -536 -365
-908 -884 -258 -361 -341 -464 -516 -646 -116 -120 -141 -153 -124 -164 29
-18 200 60 325 150 157 112 269 220 575 555 372 407 557 558 804 657 202 80
387 116 871 168 576 61 734 97 1371 310 l431 145 264 11 c314 14 834 6 1039
-15 472 -49 816 -139 1165 -305 256 -123 390 -211 960 -636 305 -227 380 -288
490 -399 178 -178 295 -354 395 -591 24 -55 45 -102 48 -105 9 -9 -9 125 -33
246 -58 288 -167 536 -336 759 -41 55 -135 186 -209 290 -347 494 -518 684
-720 800 -36 21 -72 46 -80 56 -10 12 -57 26 -150 44 -198 39 -545 124 -789
195 -118 34 -316 84 -440 111 -124 27 -236 51 -247 54 -12 3 -46 24 -75 48
-70 57 -165 105 -429 217 -274 117 -566 261 -1000 495 -538 290 -786 407
-1080 509 -247 86 -475 138 -755 171 -158 19 -555 27 -720 14z M24694 18815
c-27 -13 -69 -42 -94 -64 l-45 -39 46 -49 c25 -26 130 -138 235 -248 104 -110
203 -216 219 -234 17 -19 -60 33 -170 115 -391 289 -417 307 -423 298 -67
-100 -96 -188 -88 -269 9 -95 55 -176 155 -275 64 -64 107 -96 167 -128 185
-95 464 -163 817 -197 l68 -7 -7 29 c-63 271 -120 445 -199 611 -94 195 -183
306 -325 400 -128 86 -257 106 -356 57z M32970 18636 c-71 -20 -123 -51 -168
-100 -49 -53 -74 -107 -92 -191 -14 -67 -12 -69 64 -80 73 -9 248 -51 341 -81
153 -50 465 -187 453 -199 -2 -2 -54 12 -117 31 -62 19 -174 46 -249 59 -154
29 -487 54 -503 38 -14 -14 6 -154 30 -226 49 -142 147 -228 331 -290 l95 -32
485 0 c267 -1 511 -5 542 -9 l57 -8 -15 63 c-43 190 -147 421 -254 564 -187
249 -411 406 -655 456 -104 22 -276 24 -345 5z M31773 18561 c-40 -15 -114
-57 -152 -87 -10 -9 95 -126 258 -287 99 -98 186 -186 193 -195 36 -45 -469
314 -516 367 -27 30 -39 27 -75 -24 -47 -65 -61 -107 -61 -178 0 -90 45 -179
137 -270 126 -124 204 -162 483 -232 178 -45 294 -89 377 -145 l32 -21 18 58
c26 85 23 271 -5 377 -67 245 -210 463 -378 575 -120 80 -210 98 -311 62z
M11791 18404 c-42 -15 -92 -44 -135 -78 -17 -14 -18 -18 -4 -33 154 -183 415
-493 427 -508 15 -19 15 -19 -4 -4 -11 9 -132 109 -268 222 -137 114 -253 207
-258 207 -5 0 -27 -27 -49 -61 -44 -68 -65 -149 -55 -212 15 -100 116 -246
227 -330 142 -106 402 -195 722 -247 70 -12 131 -19 134 -16 13 14 -57 333
-108 486 -44 132 -120 287 -177 358 -142 177 -323 263 -452 216z M6005 18084
c-114 -18 -190 -49 -313 -127 -70 -44 -163 -102 -207 -130 -43 -27 -116 -67
-160 -87 -93 -43 -152 -90 -172 -138 -21 -50 -10 -72 31 -65 30 5 40 -1 109
-64 155 -141 418 -243 629 -243 119 0 292 50 366 106 42 33 75 102 106 226
l24 93 -36 8 c-54 13 -185 1 -377 -33 -93 -16 -190 -30 -215 -29 -44 0 -44 1
35 24 44 13 137 44 207 70 165 59 267 85 340 85 l58 0 0 44 c0 101 -50 180
-144 226 -55 27 -76 32 -157 35 -52 2 -107 1 -124 -1z M30572 18066 c-83 -27
-146 -100 -166 -191 l-6 -30 84 -22 c119 -31 274 -93 394 -159 56 -32 101 -58
99 -60 -1 -2 -43 12 -92 31 -113 42 -294 82 -408 91 l-87 7 0 -60 c0 -127 57
-222 168 -281 93 -49 157 -62 387 -72 206 -10 413 -26 447 -36 15 -5 17 0 12
28 -27 153 -91 316 -174 438 -57 83 -152 179 -226 227 -125 80 -330 122 -432
89z M22483 17958 c-278 -391 -370 -674 -297 -919 34 -114 106 -178 226 -203
l63 -13 6 36 c4 20 21 170 40 333 18 164 34 296 35 295 2 -1 12 -150 23 -331
12 -181 22 -330 23 -332 8 -6 122 19 160 35 124 54 185 191 175 396 -8 165
-64 323 -193 543 -51 87 -172 272 -179 272 -1 0 -38 -51 -82 -112z M9364
17975 c-27 -14 -61 -35 -76 -48 l-26 -22 144 -170 c80 -93 172 -204 207 -245
l61 -75 -54 46 c-30 25 -140 116 -244 203 l-190 159 -28 -34 c-69 -82 -85
-203 -39 -300 27 -58 112 -159 171 -203 88 -66 244 -132 415 -176 93 -24 287
-60 323 -60 24 0 24 2 18 46 -12 88 -58 280 -93 384 -68 206 -162 353 -278
437 -120 88 -217 106 -311 58z M10674 17647 c-65 -82 -98 -136 -147 -232 -113
-227 -140 -415 -85 -595 57 -183 141 -257 282 -248 36 2 68 7 72 10 3 4 -6 71
-20 150 -28 158 -47 322 -45 402 1 28 3 42 6 31 43 -188 101 -379 152 -498
l21 -48 51 27 c68 37 133 111 149 169 18 63 8 203 -20 283 -12 34 -50 109 -83
165 -77 127 -280 437 -287 436 -3 0 -23 -23 -46 -52z M32955 17410 c-191 -16
-363 -65 -466 -131 -84 -55 -189 -162 -220 -224 -37 -77 -34 -161 10 -248 19
-37 35 -67 37 -67 2 0 61 37 131 83 120 78 367 228 423 257 31 16 22 6 -70
-70 -105 -88 -239 -207 -323 -288 l-78 -75 33 -34 c18 -19 61 -48 95 -65 56
-27 70 -30 136 -27 61 4 87 11 151 43 180 89 316 272 496 669 39 88 69 161 67
164 -6 6 -231 23 -287 21 -25 0 -85 -4 -135 -8z M7315 17116 c-113 -50 -247
-321 -261 -525 -14 -194 54 -494 187 -831 27 -69 53 -131 58 -139 13 -20 84
40 281 238 250 251 393 464 441 659 17 70 20 108 17 230 -3 143 -4 148 -34
202 -35 62 -102 111 -154 113 -29 2 -32 -2 -49 -49 -10 -28 -48 -97 -85 -152
-90 -136 -124 -213 -234 -527 -17 -49 -13 -9 13 145 34 200 56 280 115 421 29
66 54 136 57 155 l6 34 -64 0 c-35 0 -95 7 -134 16 -110 24 -128 25 -160 10z
M6165 16790 c-105 -22 -222 -84 -328 -174 -108 -90 -236 -283 -287 -431 l-18
-54 61 -5 c34 -3 118 -10 187 -16 69 -5 184 -17 255 -26 160 -19 258 -14 353
19 88 31 133 63 167 121 29 50 57 166 44 181 -16 16 -352 10 -463 -9 -54 -9
-101 -15 -103 -13 -6 7 138 56 242 82 55 14 143 30 195 36 153 17 143 12 135
67 -14 96 -70 172 -153 208 -43 19 -224 28 -287 14z M27769 16656 c-121 -43
-189 -144 -219 -326 -22 -134 2 -288 77 -490 36 -97 145 -321 190 -393 l25
-39 35 33 c56 54 209 244 276 343 130 194 187 348 187 505 0 186 -59 287 -196
340 -95 36 -82 61 -160 -305 -38 -180 -71 -319 -72 -309 -2 10 1 135 7 279 6
143 11 287 11 319 l0 57 -62 0 c-35 -1 -79 -7 -99 -14z M29443 16656 c-48 -15
-124 -58 -141 -78 -8 -11 8 -39 75 -128 81 -109 293 -422 315 -465 6 -11 -41
34 -103 100 -142 151 -381 384 -394 385 -14 0 -62 -62 -93 -122 -23 -46 -27
-65 -27 -139 0 -78 3 -91 37 -160 95 -191 236 -300 603 -467 183 -84 336 -144
344 -137 3 4 6 104 6 223 -1 299 -34 474 -127 662 -34 69 -59 102 -137 181
-108 108 -175 148 -262 155 -31 2 -72 -2 -96 -10z M9080 16553 c-135 -11 -436
-56 -448 -68 -7 -6 112 -209 189 -325 183 -273 340 -422 519 -493 188 -74 322
-65 419 26 41 39 91 106 91 122 0 7 -142 97 -315 200 -173 103 -315 189 -315
191 0 2 10 0 23 -5 12 -5 165 -63 339 -130 174 -66 321 -121 327 -121 21 0 43
110 39 195 -3 66 -10 91 -31 127 -59 101 -228 215 -372 252 -119 30 -302 42
-465 29z M15650 16549 c-25 -5 -50 -11 -56 -13 -8 -3 -2 -43 17 -128 49 -210
118 -642 105 -655 -2 -2 -11 25 -21 59 -50 179 -219 635 -245 662 -14 14 -111
-45 -171 -104 -73 -73 -101 -143 -100 -255 1 -220 79 -383 336 -705 135 -169
278 -340 285 -340 9 0 78 112 128 210 67 129 118 259 154 399 28 105 31 132
32 276 1 151 -1 165 -28 245 -73 219 -163 324 -301 349 -66 12 -72 12 -135 0z
M13706 16506 c-54 -19 -103 -39 -108 -44 -14 -14 36 -105 115 -212 35 -47 137
-164 228 -260 90 -96 148 -164 129 -149 -19 14 -75 54 -125 89 -209 148 -362
285 -448 398 -21 28 -43 52 -47 52 -17 0 -119 -109 -141 -150 -21 -39 -24 -58
-23 -140 0 -81 4 -104 27 -154 67 -147 219 -304 364 -378 106 -55 163 -74 403
-133 204 -51 298 -86 391 -146 34 -22 63 -39 64 -37 2 2 11 28 20 58 23 76 31
251 15 347 -27 169 -120 400 -230 568 -92 140 -260 287 -359 315 -74 20 -170
12 -275 -24z M26245 16376 c-27 -14 -66 -39 -85 -55 l-35 -29 20 -25 c11 -14
63 -77 116 -139 85 -101 202 -250 285 -363 20 -28 -2 -11 -75 55 -130 120
-271 243 -362 317 l-71 57 -21 -24 c-11 -14 -34 -54 -51 -90 -25 -53 -30 -78
-30 -136 0 -60 5 -81 33 -138 42 -87 125 -184 206 -241 115 -83 454 -228 708
-303 l67 -20 0 113 c0 288 -75 593 -189 767 -61 93 -174 199 -259 240 -92 45
-185 50 -257 14z M11904 15818 c4 -211 9 -414 13 -453 3 -38 3 -67 -1 -64 -4
4 -45 199 -92 435 -46 235 -86 430 -89 432 -8 8 -123 -27 -176 -53 -96 -49
-151 -117 -187 -234 -25 -83 -21 -298 7 -406 43 -164 185 -410 364 -635 93
-115 254 -290 268 -290 11 0 161 298 222 441 49 115 106 285 134 400 27 111
24 346 -5 454 -62 225 -163 322 -358 345 -49 5 -93 10 -98 10 -5 0 -6 -160 -2
-382z M31210 16164 c-150 -39 -230 -177 -230 -394 0 -179 109 -464 280 -728
l47 -74 67 84 c90 111 193 264 248 368 62 115 96 220 107 329 25 240 -61 387
-245 416 l-40 7 -49 -319 -50 -318 -6 115 c-4 63 -7 208 -8 323 l-1 207 -32
-1 c-18 0 -58 -7 -88 -15z M24561 16009 c-147 -58 -246 -248 -258 -495 -8
-148 7 -218 117 -544 49 -146 96 -305 105 -355 10 -49 18 -91 20 -93 2 -2 32
11 66 29 292 146 592 563 640 889 36 251 -30 398 -224 495 -39 20 -74 32 -79
27 -21 -21 -101 -301 -147 -512 -29 -129 -54 -239 -56 -245 -7 -15 4 300 16
455 6 74 19 184 29 245 10 60 17 111 15 114 -3 2 -46 5 -97 8 -78 3 -102 0
-147 -18z M17441 15745 c-230 -65 -401 -257 -621 -696 l-79 -158 27 -5 c62
-14 225 -26 342 -26 356 0 581 78 740 257 88 99 104 206 50 321 l-30 64 -62
-35 c-212 -118 -558 -292 -533 -269 6 6 75 58 155 118 80 59 196 148 258 198
l113 90 -47 47 c-93 95 -198 126 -313 94z M33944 15691 c-35 -16 -73 -54 -97
-97 -4 -7 23 -31 63 -58 84 -55 197 -160 256 -238 24 -31 44 -60 44 -63 0 -4
-27 18 -61 49 -33 31 -87 74 -120 97 -77 52 -205 113 -223 106 -18 -7 -40
-127 -31 -174 21 -112 90 -175 312 -286 93 -47 206 -110 251 -140 l82 -55 21
67 c15 45 23 102 26 182 6 137 -15 239 -73 358 -91 186 -320 314 -450 252z
M32728 15426 c-32 -7 -60 -15 -63 -18 -4 -3 14 -72 39 -153 51 -163 120 -411
130 -465 6 -34 6 -34 -16 10 -187 383 -259 527 -267 539 -7 12 -17 10 -53 -12
-132 -78 -188 -208 -155 -364 37 -172 92 -259 286 -453 131 -131 385 -349 395
-339 13 13 88 255 110 351 79 352 43 608 -113 805 -69 88 -178 125 -293 99z
M22836 15282 c-6 -133 0 -481 9 -547 3 -22 2 -26 -5 -14 -12 21 -84 383 -105
529 -22 159 -23 160 -44 160 -10 0 -48 -9 -84 -20 -168 -52 -244 -208 -217
-447 25 -230 164 -461 434 -720 143 -138 140 -137 171 -66 48 108 143 368 173
473 60 208 71 314 49 440 -41 227 -132 327 -318 347 l-56 6 -7 -141z M7962
15310 c-134 -61 -251 -232 -293 -431 -35 -166 -36 -537 -1 -731 l7 -38 123 60
c350 170 578 350 671 530 92 179 100 299 28 407 -33 49 -113 117 -127 108 -4
-3 -92 -128 -195 -278 -103 -149 -192 -276 -197 -282 -13 -14 9 35 156 354 96
207 124 276 114 283 -61 40 -217 50 -286 18z M6320 15289 c-96 -26 -219 -86
-295 -144 -135 -102 -287 -271 -401 -445 -76 -117 -159 -269 -150 -277 9 -10
323 -60 488 -78 191 -21 422 -22 513 -1 213 49 378 162 418 286 18 57 23 215
8 239 -8 13 -34 10 -178 -18 -133 -25 -502 -111 -592 -137 -9 -3 10 9 41 25
80 43 377 169 546 232 78 29 142 58 142 64 0 28 -68 143 -107 183 -68 68 -118
86 -248 89 -86 2 -126 -2 -185 -18z M9261 14930 c-36 -10 -103 -38 -150 -61
-72 -36 -104 -62 -197 -154 -114 -114 -190 -212 -289 -374 -90 -147 -168 -302
-159 -311 12 -12 310 -48 459 -56 140 -7 333 9 443 36 156 39 337 156 399 257
48 78 59 145 39 235 -28 126 9 129 -396 -31 -195 -77 -355 -139 -357 -138 -1
2 144 92 322 201 179 109 325 203 325 209 0 21 -81 117 -126 148 -89 61 -192
74 -313 39z M10550 14860 c-19 -4 -54 -17 -78 -29 l-44 -22 18 -27 c64 -96
234 -423 234 -449 0 -3 -22 26 -50 66 -65 94 -129 178 -210 274 l-65 78 -36
-40 c-57 -63 -74 -106 -73 -181 0 -53 7 -79 34 -135 53 -109 156 -204 392
-363 108 -72 199 -129 201 -124 3 4 15 50 28 102 20 81 23 121 24 275 0 159
-3 188 -22 251 -30 94 -64 153 -131 225 -78 85 -141 113 -222 99z M6697 13029
c-193 -21 -422 -96 -564 -185 -338 -210 -537 -530 -584 -938 -7 -60 -9 -521
-7 -1361 4 -1256 4 -1271 25 -1363 76 -327 228 -569 473 -751 295 -220 729
-305 1175 -230 281 46 520 166 702 351 194 195 298 402 351 698 15 86 17 209
17 1355 0 1146 -2 1269 -17 1355 -53 295 -162 514 -348 700 -187 187 -431 308
-715 356 -113 19 -392 26 -508 13z m316 -824 c119 -31 203 -98 257 -205 61
-122 60 -80 60 -1395 0 -1302 1 -1275 -55 -1385 -37 -73 -117 -155 -181 -185
-107 -51 -265 -51 -370 0 -58 28 -142 112 -172 171 -11 22 -28 66 -39 99 -17
57 -18 124 -18 1300 0 1175 1 1243 18 1300 28 88 63 151 112 200 98 98 247
137 388 100z M34005 13034 c-607 -63 -1017 -418 -1126 -975 -30 -149 -32 -404
-5 -554 37 -203 121 -399 251 -580 145 -202 286 -330 725 -658 557 -415 659
-516 705 -692 30 -116 15 -278 -36 -377 -115 -225 -417 -271 -581 -89 -88 98
-118 196 -118 387 0 137 -10 188 -40 204 -12 6 -185 10 -443 10 -419 0 -424 0
-443 -21 -17 -20 -19 -38 -18 -223 1 -219 14 -322 60 -467 93 -295 305 -540
589 -682 324 -161 800 -188 1165 -67 313 104 581 345 711 640 76 172 110 355
110 591 0 451 -157 753 -571 1098 -63 53 -250 198 -415 322 -530 400 -647 517
-704 703 -26 84 -29 243 -6 331 35 135 119 230 232 265 182 56 365 -22 444
-189 38 -81 49 -142 56 -314 6 -163 7 -169 31 -188 24 -18 43 -19 433 -19 282
0 416 3 433 11 44 20 49 54 43 247 -9 292 -62 500 -174 687 -187 311 -491 514
-868 580 -87 16 -359 27 -440 19z M37150 13029 c-490 -55 -881 -348 -1029
-772 -57 -164 -74 -271 -75 -477 0 -269 38 -448 139 -644 157 -305 356 -505
895 -901 399 -293 570 -446 623 -556 98 -203 69 -438 -72 -580 -70 -70 -144
-101 -246 -102 -100 0 -164 23 -233 88 -109 100 -140 190 -149 429 -5 136 -9
162 -25 178 -17 17 -44 18 -447 18 l-430 0 -21 -27 c-22 -27 -22 -34 -17 -233
5 -220 19 -323 62 -455 114 -349 370 -608 730 -738 181 -65 445 -95 661 -77
270 23 461 86 654 215 262 174 428 423 501 750 29 129 37 424 16 561 -53 334
-212 583 -557 871 -69 58 -249 198 -400 312 -599 449 -706 565 -739 805 -24
173 24 343 124 435 70 65 124 85 225 86 179 0 294 -80 361 -254 19 -47 23 -84
28 -239 l6 -184 28 -24 28 -24 414 0 414 0 28 24 28 24 -1 174 c-2 279 -36
446 -134 643 -72 146 -130 224 -253 341 -156 147 -325 240 -539 294 -187 46
-404 61 -598 39z M23189 12964 l-24 -26 -3 -2301 c-1 -1266 0 -2317 3 -2335 3
-17 16 -41 27 -52 21 -19 36 -20 449 -20 405 0 428 1 450 19 l24 19 5 939 5
938 355 6 c314 5 367 8 458 28 219 46 391 134 543 278 215 203 344 466 395
803 21 140 21 420 -1 565 -57 395 -233 716 -504 921 -100 76 -274 164 -381
194 -173 48 -217 50 -1021 50 l-756 0 -24 -26z m1463 -847 c130 -64 212 -175
259 -352 32 -115 32 -365 1 -478 -56 -203 -185 -341 -352 -377 -34 -7 -126
-10 -245 -8 l-190 3 -3 615 c-1 338 0 621 3 628 4 11 50 13 228 10 l223 -3 76
-38z M26502 12967 l-22 -23 0 -2335 0 -2336 23 -21 c23 -22 26 -22 453 -22
l431 0 21 23 22 23 0 950 c0 726 3 953 12 962 8 8 53 12 138 12 109 0 129 -3
142 -17 8 -10 133 -443 277 -963 226 -813 266 -948 287 -967 l25 -23 448 0
c421 0 449 1 464 18 10 10 17 26 17 36 0 10 -142 472 -315 1028 -173 555 -315
1017 -315 1026 0 10 36 43 81 77 240 176 407 448 478 777 63 292 42 661 -55
940 -162 468 -516 771 -984 843 -77 12 -239 15 -851 15 l-756 0 -21 -23z
m1460 -845 c126 -62 216 -180 260 -339 32 -117 32 -355 -1 -470 -43 -154 -132
-268 -260 -331 l-75 -37 -219 -3 c-175 -3 -221 -1 -228 10 -11 16 -12 1192 -2
1202 4 4 109 6 233 4 l226 -3 66 -33z M2291 12961 l-21 -21 0 -2333 0 -2334
24 -22 23 -22 774 3 c758 3 776 4 881 26 211 44 365 108 519 213 269 185 429
446 485 794 21 130 23 398 5 520 -54 352 -202 625 -446 823 -44 36 -81 70 -83
76 -1 7 26 33 61 59 213 155 349 393 398 692 20 120 17 427 -5 550 -48 265
-148 466 -313 626 -176 171 -405 282 -705 341 -109 21 -136 22 -845 26 -727 3
-732 3 -752 -17z m1364 -817 c151 -39 255 -148 310 -324 11 -35 19 -106 22
-195 5 -121 3 -152 -15 -223 -28 -110 -62 -176 -125 -240 -103 -106 -189 -132
-438 -132 -152 0 -178 2 -183 16 -8 20 -8 1078 0 1098 9 23 342 23 429 0z
m-35 -1814 c192 -25 328 -162 392 -397 17 -65 21 -107 22 -248 1 -148 -2 -180
-22 -249 -50 -173 -123 -271 -250 -333 l-76 -38 -230 0 -231 0 -3 625 c-2 579
-1 626 15 638 21 15 270 16 383 2z M8981 12954 l-21 -27 2 -2329 3 -2330 24
-19 c24 -19 42 -20 770 -17 731 3 748 4 854 26 586 123 957 533 1017 1122 8
83 10 450 7 1305 -3 1176 -4 1191 -25 1289 -53 242 -138 418 -279 578 -201
226 -466 365 -786 412 -87 13 -226 16 -825 16 l-721 0 -20 -26z m1439 -825
c109 -51 177 -134 227 -276 l28 -78 0 -1150 0 -1150 -23 -75 c-30 -96 -71
-168 -133 -231 -92 -94 -201 -122 -454 -117 l-140 3 -3 1540 c-1 847 0 1546 3
1553 4 10 51 12 222 10 211 -3 220 -4 273 -29z M12361 12954 l-21 -27 0 -2324
0 -2324 25 -24 24 -25 429 0 c408 0 431 1 453 19 l24 19 5 964 5 963 359 3
c256 2 363 -1 372 -9 12 -10 14 -170 14 -963 l0 -953 23 -21 c23 -22 26 -22
453 -22 l431 0 21 23 22 23 0 2332 c0 2319 0 2332 -20 2352 -19 19 -33 20
-455 20 -434 0 -434 0 -455 -22 -20 -22 -20 -30 -20 -969 0 -788 -2 -948 -14
-958 -9 -8 -116 -11 -372 -9 l-359 3 -5 956 c-5 923 -6 958 -24 978 -19 21
-25 21 -457 21 l-438 0 -20 -26z M15770 12960 c-20 -20 -20 -33 -20 -2353 l0
-2334 23 -21 c23 -22 26 -22 453 -22 l431 0 21 23 22 23 0 2332 c0 2319 0
2332 -20 2352 -19 19 -33 20 -455 20 -422 0 -436 -1 -455 -20z M29841 12954
l-21 -27 0 -2324 0 -2324 25 -24 24 -25 1199 0 1199 0 21 23 c22 23 22 27 22
384 0 340 -1 362 -19 384 l-19 24 -744 5 -743 5 0 570 0 570 445 5 c245 3 446
7 447 8 1 1 9 15 18 32 13 24 15 84 15 369 0 355 -3 379 -44 400 -14 8 -158
12 -451 14 l-430 2 0 565 0 565 735 5 c760 5 769 6 784 46 3 8 6 177 6 375 0
346 -1 360 -20 379 -20 20 -33 20 -1224 20 l-1205 0 -20 -26z M19091 12597
c-103 -219 -133 -295 -151 -380 -31 -152 -40 -252 -40 -457 0 -210 7 -326 45
-660 13 -118 29 -287 35 -374 16 -234 47 -388 104 -515 56 -123 120 -238 190
-341 75 -111 315 -346 524 -515 255 -205 375 -317 616 -576 285 -305 432 -454
556 -563 299 -263 642 -491 1005 -667 99 -48 190 -90 202 -94 19 -5 13 9 -39
92 -201 319 -382 771 -547 1368 -152 547 -490 1495 -661 1851 -208 436 -446
739 -884 1128 -88 77 -252 224 -365 326 -215 193 -378 334 -446 387 -35 26
-98 64 -107 63 -2 -1 -18 -33 -37 -73z M18825 9944 c-133 -170 -161 -223 -236
-443 -134 -397 -300 -811 -429 -1076 -212 -434 -490 -787 -836 -1062 l-102
-80 -83 -7 c-128 -11 -363 -45 -464 -67 -116 -26 -306 -89 -383 -128 l-61 -31
-103 16 c-235 35 -613 34 -909 -1 -304 -37 -608 -101 -1234 -260 -641 -163
-919 -222 -1340 -284 -939 -139 -1810 -151 -3016 -41 -416 38 -488 38 -464 0
12 -20 139 -74 280 -120 457 -148 1124 -260 1725 -291 113 -6 249 -13 302 -17
l97 -7 -322 -192 c-177 -105 -378 -220 -446 -255 -69 -35 -126 -69 -128 -75
-2 -5 5 -20 15 -33 l19 -23 119 37 c181 57 340 124 679 288 171 82 371 176
446 208 l136 58 179 12 c216 13 517 43 708 70 77 11 145 20 150 20 6 0 -78
-89 -185 -197 -278 -283 -349 -364 -349 -400 0 -16 5 -34 12 -41 31 -31 58
-13 236 157 190 182 349 325 504 454 l97 81 183 37 c101 20 350 75 553 122
433 100 715 158 910 186 212 31 498 54 493 40 -4 -11 -1061 -873 -1170 -955
-247 -184 -425 -268 -654 -309 -49 -8 -336 -31 -639 -50 -1714 -109 -2505
-186 -2505 -244 0 -13 20 -19 105 -30 202 -28 928 -51 1659 -51 l419 0 -7 -52
c-11 -83 -24 -370 -19 -419 l4 -44 -93 -60 c-258 -167 -498 -396 -498 -476 0
-70 75 -39 279 114 79 60 184 135 232 168 l88 59 6 -38 c3 -20 15 -82 26 -137
11 -55 31 -174 45 -265 46 -309 90 -426 204 -540 106 -107 154 -107 100 -1
-44 89 -90 231 -97 305 -4 45 1 98 17 182 31 164 25 338 -23 649 -58 374 -58
432 -2 485 23 21 39 25 123 30 81 5 106 10 152 35 47 24 63 28 115 24 131 -9
343 -1 440 15 166 29 387 110 533 196 28 17 52 29 52 27 0 -2 -24 -50 -54
-108 -160 -305 -394 -1017 -475 -1441 -52 -273 -70 -630 -42 -826 15 -101 19
-112 40 -112 38 1 44 16 53 142 66 1004 357 1883 802 2424 l75 91 148 47 c195
62 316 121 391 191 65 60 227 148 552 301 490 230 1215 514 1493 585 105 27
247 58 247 54 0 -6 -314 -208 -642 -413 -494 -309 -885 -571 -1043 -698 -141
-113 -405 -395 -405 -432 0 -6 9 -16 20 -22 17 -9 31 0 103 67 207 196 393
312 722 454 138 59 354 155 480 214 127 59 313 143 414 186 101 44 263 120
360 169 96 49 176 88 178 87 6 -7 -188 -220 -326 -358 -166 -166 -286 -269
-444 -381 -127 -90 -199 -133 -486 -284 -467 -248 -594 -335 -811 -553 -216
-217 -345 -395 -593 -816 -436 -742 -688 -1235 -630 -1235 49 0 311 323 718
885 353 489 513 694 627 802 l34 33 17 -108 c22 -137 76 -353 166 -658 39
-133 85 -306 101 -385 52 -244 62 -319 134 -1058 11 -109 17 -137 32 -148 25
-18 62 -16 72 5 39 74 51 652 19 907 -41 323 -80 515 -233 1143 -109 450 -114
475 -97 488 108 84 271 175 565 314 l228 108 0 -137 c0 -245 44 -880 76 -1096
17 -119 53 -272 96 -410 34 -111 156 -446 165 -455 15 -13 -11 276 -44 489
-87 572 -49 960 156 1562 69 205 125 332 184 419 43 64 147 170 252 258 201
169 321 294 546 569 83 101 151 183 152 183 1 0 2 -399 2 -888 0 -637 -4 -950
-14 -1112 l-14 -225 -29 -25 c-24 -21 -34 -47 -64 -159 -83 -317 -152 -454
-368 -725 -66 -83 -152 -202 -193 -263 -95 -145 -174 -244 -355 -440 -220
-239 -308 -349 -384 -480 -30 -53 -8 -58 64 -16 247 146 513 415 780 789 66
93 171 228 232 299 121 141 211 268 254 359 15 32 29 56 30 54 2 -1 -1 -88 -7
-193 -15 -306 -15 -1378 1 -1447 23 -100 47 -88 86 42 79 263 187 982 331
2210 87 742 105 871 145 1070 82 400 164 579 495 1076 121 182 238 363 260
402 40 73 48 79 75 62 13 -8 8 -59 -39 -392 -45 -325 -60 -411 -103 -568 -27
-102 -76 -284 -109 -405 -135 -500 -185 -867 -160 -1180 14 -168 16 -177 44
-173 20 3 23 14 38 151 41 358 116 621 372 1308 153 410 224 625 277 839 22
90 41 165 43 166 1 2 13 -92 25 -208 46 -424 125 -964 188 -1277 20 -100 31
-177 26 -180 -5 -3 -17 -43 -26 -88 -23 -116 -59 -234 -108 -360 -40 -103 -81
-186 -385 -783 -190 -373 -274 -601 -323 -880 -28 -156 -38 -514 -21 -695 29
-297 90 -551 137 -569 22 -8 49 44 68 132 9 42 30 185 46 317 90 716 165 942
495 1500 176 296 280 479 332 580 l46 91 54 -105 c175 -341 377 -564 906
-1005 164 -136 347 -297 407 -356 250 -250 391 -469 489 -755 48 -140 60 -165
77 -165 41 0 81 173 70 300 -24 279 -133 534 -351 825 -102 136 -202 243 -561
600 -378 376 -477 503 -620 799 -122 252 -225 598 -309 1036 -53 282 -154 855
-150 859 2 2 47 -83 99 -188 174 -346 283 -511 445 -671 160 -158 330 -269
686 -446 221 -110 232 -117 283 -177 118 -137 210 -294 417 -712 211 -428 323
-636 585 -1095 326 -568 400 -694 415 -703 24 -13 54 2 61 29 8 30 15 15 -355
781 -459 953 -757 1597 -733 1588 164 -63 478 -150 770 -214 125 -27 264 -63
310 -79 251 -92 440 -324 537 -657 34 -117 60 -270 79 -475 40 -408 52 -450
95 -335 30 80 59 251 72 430 37 501 -116 939 -418 1197 -135 115 -265 173
-598 268 -551 158 -949 322 -1400 577 -249 142 -420 265 -499 359 -20 24 -35
44 -33 44 2 0 33 -13 68 -29 361 -164 802 -212 1228 -134 90 16 101 16 213 0
179 -26 317 -74 425 -148 49 -34 95 -37 123 -9 28 28 25 49 -18 116 -84 130
-251 240 -432 286 -79 19 -101 20 -308 14 -301 -8 -455 11 -615 79 -37 15 -37
16 -23 43 39 75 189 169 312 195 90 19 218 -3 424 -73 97 -33 182 -60 189 -60
26 0 4 36 -51 80 -72 58 -228 151 -388 230 -69 35 -127 64 -129 66 -20 18 39
9 220 -36 244 -59 346 -80 397 -80 31 0 72 -24 257 -151 121 -84 414 -283 651
-444 465 -315 580 -398 718 -521 81 -72 92 -86 123 -159 83 -194 168 -499 237
-853 52 -266 67 -395 73 -637 8 -316 -20 -533 -104 -829 -35 -124 -36 -129
-18 -142 45 -33 67 -10 115 119 134 356 196 779 171 1159 -12 186 -34 352 -80
604 -16 87 -27 160 -26 162 1 2 96 -140 211 -315 492 -753 774 -1133 838
-1133 16 0 18 6 14 48 -11 108 -140 403 -430 982 -285 571 -394 760 -577 1008
-115 155 -355 399 -526 534 -118 93 -540 401 -948 692 -114 82 -206 150 -205
151 2 2 74 8 160 15 182 13 258 6 403 -41 180 -57 363 -168 675 -409 355 -274
536 -376 651 -368 55 4 61 25 25 96 -56 110 -359 494 -525 665 l-104 107 99 0
c235 0 651 -39 949 -90 203 -34 224 -41 384 -128 188 -101 259 -179 308 -337
24 -79 24 -398 -1 -554 -33 -216 -44 -242 -279 -691 -42 -80 -77 -155 -77
-168 0 -30 42 -72 72 -72 32 1 49 16 91 86 20 33 83 121 141 195 126 160 160
222 219 394 24 72 56 158 71 192 14 34 30 93 36 130 10 69 53 229 65 241 10
10 56 -20 86 -58 57 -71 120 -407 120 -643 0 -131 -7 -194 -55 -502 -37 -237
-46 -377 -35 -566 5 -90 14 -261 19 -379 11 -229 20 -299 46 -338 16 -24 16
-24 35 -5 38 37 88 226 123 458 36 238 48 409 53 767 10 634 -24 942 -130
1188 -44 100 -115 219 -186 308 -46 57 -66 94 -96 177 -20 57 -68 167 -105
244 -55 113 -66 141 -52 141 9 0 105 -9 212 -20 197 -19 621 -53 825 -65 l110
-7 146 -197 c192 -257 276 -386 358 -552 114 -228 190 -494 222 -774 10 -79
18 -114 31 -127 23 -23 42 -23 64 -1 15 15 16 36 11 188 -12 368 -108 728
-287 1072 -52 101 -64 130 -48 122 46 -25 245 -238 433 -464 282 -340 421
-475 576 -558 105 -57 159 -58 159 -3 0 31 -62 156 -240 481 -222 408 -329
577 -472 749 -25 31 -28 37 -13 33 56 -17 487 -98 597 -113 147 -18 181 -12
129 26 -18 12 -91 46 -164 76 -72 30 -133 56 -134 58 -2 2 47 9 109 15 876 93
1669 345 2188 694 89 60 195 161 186 176 -14 22 -68 10 -332 -75 -707 -226
-1173 -319 -1879 -376 -242 -20 -1106 -16 -1401 5 -228 17 -233 18 -395 68
-655 202 -1176 319 -1654 371 -162 18 -787 17 -955 0 -210 -22 -419 -50 -790
-107 -479 -72 -723 -102 -985 -120 -121 -8 -249 -19 -285 -24 -411 -60 -826
27 -1335 277 -197 97 -364 194 -559 324 -407 272 -585 433 -1061 963 -302 336
-464 502 -640 654 -301 261 -508 513 -648 788 -28 56 -54 103 -57 103 -3 -1
-45 -52 -95 -116z"/>
</g>
</svg>
